PathFileType	4	(X/Y/Z)	55_2_2_p0_0-172.trc
DataRate	CameraRate	NumFrames	NumMarkers	Units	OrigDataRate	OrigDataStartFrame	OrigNumFrames
46.0	46.0	6	27	m	46.0	151	173
Frame#	Time	RHip			RKnee			RAnkle			RBigToe			RSmallToe			RHeel			LHip			LKnee			LAnkle			LBigToe			LSmallToe			LHeel			Neck			Head			Nose			RShoulder			RElbow			RWrist			RThumb			RIndex			RPinky			LShoulder			LElbow			LWrist			LThumb			LIndex			LPinky			
		X1	Y1	Z1	X2	Y2	Z2	X3	Y3	Z3	X4	Y4	Z4	X5	Y5	Z5	X6	Y6	Z6	X7	Y7	Z7	X8	Y8	Z8	X9	Y9	Z9	X10	Y10	Z10	X11	Y11	Z11	X12	Y12	Z12	X13	Y13	Z13	X14	Y14	Z14	X15	Y15	Z15	X16	Y16	Z16	X17	Y17	Z17	X18	Y18	Z18	X19	Y19	Z19	X20	Y20	Z20	X21	Y21	Z21	X22	Y22	Z22	X23	Y23	Z23	X24	Y24	Z24	X25	Y25	Z25	X26	Y26	Z26	X27	Y27	Z27	
151	3.282608695652174	0.33295601759424154	0.5814295161896944	0.7800402327067485	0.321886697609946	0.5724340007661421	1.1949364440565213	0.3223523823646975	0.6309513649700752	1.640105489576163	0.2914084051372395	0.4333604284932505	1.6495498135457205	0.3558204876886363	0.4676057081561501	1.6656370565356589	0.30352498841889625	0.6816582422398315	1.6999453821909651	0.12896590833500504	0.5990713085383259	0.7775188473325	0.13689892606686094	0.6109849235201957	1.2040296832546724	0.14450235270820688	0.6260883022807336	1.6120746591646766	0.12363313845596488	0.4204242831189227	1.6281949011834504	0.0758717685568017	0.4795744433617011	1.6495677014484695	0.16144268908998305	0.6721771310255693	1.6802544213935648	0.2229994536203638	0.5998378672767326	0.19371311815920897	0.22692897813170407	0.5344292493195831	-0.054824396168732394	0.2176899408918877	0.46853984792118714	0.06014186950375136	0.38470330957964183	0.5882953788588693	0.2894786256081641	0.42514814807016504	0.5942909439655963	0.5601062598995682	0.4135032335815437	0.406220134715495	0.7569082959463508	0.3518450772492302	0.3291787262015125	0.8400121119679033	0.366840665686265	0.31427894358801317	0.8594657096462526	0.39508200442970987	0.38829040130892944	0.8789242439553842	0.07478388960735088	0.6376439672883172	0.2905874828521372	0.025279790764531303	0.6460178355913619	0.549157786103438	-0.0143248321348075	0.4891048632585776	0.7285900586052574	0.0023457976056960525	0.41095527369684753	0.7986580737718741	-0.010849861113906565	0.39546329425104404	0.8091147064808492	-0.03647450571197053	0.4699254879092222	0.8356528542249309
152	3.3043478260869565	0.3317274706978353	0.5552888867796252	0.7750360752725036	0.3313110164183511	0.5869288481302749	1.2014268695239125	0.32128675885389985	0.6300171903579607	1.634521469910174	0.290235940855952	0.43229339716455434	1.6440448028520107	0.3607486593152128	0.47947750289187746	1.6733521126618214	0.30364564779051373	0.6820809701879016	1.7001363643129992	0.1251840396796451	0.5993052277085231	0.7871824158344626	0.13647324846150238	0.6123540764318915	1.2004139017530524	0.1444195665344062	0.626230998546361	1.6121286462783806	0.1272728549516667	0.4068417525762426	1.618748728384049	0.07147131193466759	0.46664749715943127	1.6445554722777913	0.1601719404609516	0.6726249059972129	1.6859794560635324	0.22335889710424192	0.6003957432951683	0.1976541556056362	0.22787030940261405	0.5570229311002529	-0.05322388546971474	0.21523304145647215	0.4812224791745887	0.06472705343889003	0.3795590220820335	0.5759380983370654	0.28735568754649676	0.421953250281896	0.5762235712844658	0.5562689579953047	0.4068313495952556	0.4190688273349352	0.766388446074953	0.3442550075723195	0.36770193692193787	0.8674603213428472	0.3547390692080094	0.3518897736712302	0.8879130321012696	0.3929697637074326	0.43188293826810187	0.9091997158462994	0.0713350825300006	0.6261873529006233	0.28853935382478235	0.02075638252330294	0.644157673061333	0.5566992705093895	-0.00499147875587957	0.47876586979192937	0.7293996555028824	0.014288141311737463	0.411658789403942	0.8030892071650524	-0.005887360658070268	0.39508122258629147	0.8121623837023894	-0.02930718054953633	0.48099840852691494	0.8433540790228344
153	3.3260869565217392	0.3365114483051983	0.5672158149156458	0.7785712365695378	0.33072825765741654	0.588321083102092	1.1957097561505634	0.3214535945472586	0.6319753197499545	1.6305425931805537	0.29124676372478203	0.4322559643590901	1.638992621608994	0.3553835058216491	0.46937173884387623	1.6617388575325718	0.3049740423087522	0.6836310547943897	1.6909523368484738	0.13734173371860578	0.5726091581751855	0.7774896050242796	0.1364415610166436	0.6130173518730903	1.200500952607217	0.1430405373795243	0.6278351195086304	1.6128164246852277	0.1274998773521257	0.4059244393821034	1.6185665251337216	0.07143475457430624	0.46651312076292545	1.6448141197967507	0.1585947721985045	0.6728305359345526	1.675786524533901	0.22659565260599643	0.5864966193980223	0.19885345979386027	0.22796343966568913	0.557179158326845	-0.049806619636492286	0.21522901706655856	0.4819763754261849	0.06497985515551367	0.3799950727649418	0.5757130060793497	0.29103038834913886	0.4062716902879016	0.5573057054029477	0.5661419028129824	0.3709164295811847	0.4839004331164235	0.8079542529354262	0.30620673304638196	0.40146170667281494	0.8983621409633169	0.33094041262972373	0.3938505484587363	0.9255944954189296	0.36869328939246043	0.4638301853616825	0.949616683297601	0.0757690877499463	0.6117589197743206	0.2929261594115137	0.03910810688108781	0.560790577702949	0.5380207352015856	0.05649090781453788	0.49751689848182423	0.7846289387784099	0.10031688456663065	0.4115610224490754	0.8722650226121266	0.08851461679070848	0.4085953917412998	0.8922891414238099	0.04625169532974581	0.4716121903015622	0.9102618021984542
154	3.347826086956522	0.3314365174901689	0.5956823960244282	0.7896944738943426	0.33232905962230785	0.5893857862749226	1.1956690297333263	0.3215550624007738	0.6320916818538997	1.63066593948167	0.29123966433748155	0.43196530298045555	1.6386280850536572	0.3582778722248893	0.45373403985098426	1.6505512148966575	0.3049986447507193	0.6836556728877266	1.690862852243554	0.13029419529134006	0.6024907012002236	0.7879087343274781	0.1378405717571441	0.6126393621704922	1.2003572813266852	0.13968291532797714	0.6144065723344042	1.5998864759382279	0.11902965955377942	0.39251836532513046	1.609390216253437	0.07045914209702357	0.4668505095161574	1.6486963112357935	0.1561840919064793	0.6600447533161445	1.6665407968452999	0.22660986322369972	0.5864108556924755	0.19888818262485514	0.22794368880230845	0.5571191148178692	-0.049669780450667125	0.21524914184484076	0.4820491752197512	0.0650197309107848	0.3800810487232354	0.5758533124572247	0.29111068917826	0.4019393413473983	0.5467032101223857	0.5669655653481503	0.360748105956724	0.47080568772841713	0.8037209129536607	0.27248349891564716	0.4075553712901166	0.8884422103025525	0.2898826973675088	0.40056235200460805	0.910626627068766	0.3276049841234236	0.4084222197076245	0.9288493440342285	0.075691858921786	0.6113781814339365	0.29280854346557655	0.04760233774233137	0.5480948181934429	0.5382577225434699	0.06960059193970397	0.49613456583085286	0.8053667415068995	0.13741478660290607	0.4342898727528604	0.8818197896633322	0.10937857251907189	0.411458679043462	0.8933704449664186	0.0807315967070731	0.4355369947847241	0.9040718488251482
155	3.369565217391304	0.3304678484707122	0.595437741913182	0.7854592342706646	0.3314444638184372	0.5883677439944353	1.1903996528870278	0.32296439403371013	0.6333537672292161	1.6367326814647114	0.2864597772128805	0.4210638228374433	1.6310748717243408	0.35358915617976355	0.43961187722017836	1.6461969451453322	0.3106743936870309	0.6979841386185255	1.7007078942513614	0.12474041498603884	0.6006702047194102	0.7786611374253875	0.1371140079164021	0.61375165255596	1.196076361513459	0.14407358277433058	0.6277058274923545	1.6082733477971118	0.11883312970305965	0.3925783634129813	1.6093592787943802	0.07131586778079704	0.4664553480156901	1.6448225447089382	0.16127010224213859	0.6716256390770217	1.6793759356413334	0.2267652662284831	0.5857619340467587	0.20234025316971965	0.2280074866768713	0.5572854487796862	-0.04973439312874359	0.21910846471553483	0.49248206669356465	0.06904755173407667	0.3800551936403214	0.5758195624446457	0.2911660187682174	0.40239442296527966	0.5472457508652351	0.570692143364103	0.3530522237202842	0.47280063192188165	0.8084913949552103	0.24770439807387856	0.3728243433419084	0.8771350488085208	0.26913674103181023	0.36994235316701113	0.8973353915800069	0.30421525569826363	0.40752900171869344	0.9300610769992241	0.07573674159894031	0.6114400330088094	0.292781490226255	0.048011690495666996	0.5474245102635152	0.5420633264355851	0.09008119912055255	0.4450800769073833	0.7855399590794725	0.1595844328382987	0.4570722815663749	0.8845110378739034	0.14630226056435314	0.4519599191600709	0.9100141267781273	0.10461299395271124	0.4352954705285063	0.9032597619820325
156	3.391304347826087	0.3205457128539423	0.5808096410816006	0.7761931707823592	0.3329619018662263	0.5882995121173791	1.1809303465877354	0.3261350791761165	0.6163251581109697	1.6255628751618059	0.29562560995846804	0.43442572218908393	1.6404894263868397	0.35816675865035935	0.4530400131655371	1.6502182883295105	0.30475832390137736	0.6835492540195175	1.6905541983195902	0.11906469161033074	0.5963311303220967	0.7683666530726153	0.13696296779902073	0.6130922730059023	1.196074215887372	0.1434393464146279	0.6010291503584242	1.5868075361172258	0.11884088107258149	0.39238461615429293	1.609202476878746	0.07142586492309412	0.4661529204200425	1.6443205470795077	0.1608875623532049	0.6732869495231757	1.674987792478065	0.22676129868778108	0.5858588933383684	0.20241916793242118	0.22793756959479536	0.5575332617769723	-0.049675551864255735	0.21879967166064887	0.4920821919605932	0.06625605561708667	0.3799316090811637	0.5756503036599298	0.2911490780952008	0.3971167891383811	0.5351002081298845	0.5636988539796823	0.3443603800148645	0.4508328389564314	0.7962297875620322	0.23569126657479264	0.37183914408495694	0.8737149098449004	0.24748215560125666	0.34834727589992553	0.8763476834383971	0.27943852870308966	0.41903300602869625	0.9184685116097832	0.0757571823084404	0.6115088004927184	0.2929698810571268	0.052455432837121924	0.5354041762067135	0.5426259218461179	0.09867929303087511	0.4181469945877403	0.7790145682394276	0.1820383297611344	0.4167157154230276	0.8556593987781608	0.17069075173179668	0.46073098923747424	0.9128128818898811	0.14160948029686785	0.484739020107098	0.9288916213739391
